<?xml version="1.0" standalone="no"?>
<!DOCTYPE svg PUBLIC "-//W3C//DTD SVG 20010904//EN"
 "http://www.w3.org/TR/2001/REC-SVG-20010904/DTD/svg10.dtd">
<svg version="1.0" xmlns="http://www.w3.org/2000/svg"
 width="269.000000pt" height="269.000000pt" viewBox="0 0 269.000000 269.000000"
 preserveAspectRatio="xMidYMid meet">
<metadata>
Created by potrace 1.11, written by Peter Selinger 2001-2013
</metadata>
<g transform="translate(0.000000,269.000000) scale(0.100000,-0.100000)"
fill="#000000" stroke="none">
<path d="M1124 2534 c-502 -84 -891 -474 -979 -981 -19 -111 -19 -307 0 -419
78 -443 391 -804 814 -938 240 -76 522 -76 762 0 423 134 736 495 814 938 19
112 19 308 0 419 -89 512 -479 900 -988 982 -112 18 -313 18 -423 -1z m-14
-800 c0 -183 4 -324 9 -322 5 2 131 148 282 326 l273 322 103 0 c57 0 103 -3
103 -6 0 -4 -382 -443 -457 -525 l-25 -27 281 -376 c155 -207 281 -379 281
-381 0 -3 -47 -5 -104 -5 l-105 0 -221 293 c-123 160 -231 301 -242 312 -19
20 -20 20 -98 -65 l-79 -85 -1 -227 0 -228 -90 0 -90 0 0 660 0 660 90 0 90 0
0 -326z"/>
</g>
</svg>
